<?xml version="1.0" encoding="UTF-8" standalone="no"?>
<svg
   width="213"
   height="32"
   viewBox="0 0 213 32"
   fill="none"
   version="1.1"
   id="svg136"
   sodipodi:docname="payments.svg"
   xmlns:inkscape="http://www.inkscape.org/namespaces/inkscape"
   xmlns:sodipodi="http://sodipodi.sourceforge.net/DTD/sodipodi-0.dtd"
   xmlns="http://www.w3.org/2000/svg"
   xmlns:svg="http://www.w3.org/2000/svg">
  <sodipodi:namedview
     id="namedview138"
     pagecolor="#ffffff"
     bordercolor="#666666"
     borderopacity="1.0"
     inkscape:showpageshadow="2"
     inkscape:pageopacity="0.0"
     inkscape:pagecheckerboard="0"
     inkscape:deskcolor="#d1d1d1"
     showgrid="false" />
  <rect
     x="163"
     width="50"
     height="32"
     rx="5"
     fill="#000000"
     id="rect18"
     y="0" />
  <g
     clip-path="url(#clip0_1167_4864)"
     id="g22">
    <path
       d="m 177.216,10.8049 c -0.399,0.4729 -1.036,0.8459 -1.674,0.7926 -0.079,-0.6394 0.233,-1.3187 0.598,-1.73832 0.398,-0.4862 1.096,-0.83254 1.66,-0.85918 0.066,0.66603 -0.193,1.3187 -0.584,1.8049 z m 0.577,0.9192 c -0.923,-0.0533 -1.713,0.5261 -2.151,0.5261 -0.445,0 -1.116,-0.4995 -1.846,-0.4862 -0.95,0.0134 -1.833,0.5528 -2.318,1.412 -0.996,1.7184 -0.259,4.2626 0.704,5.6613 0.472,0.6927 1.036,1.4519 1.78,1.4253 0.704,-0.0266 0.983,-0.4596 1.833,-0.4596 0.856,0 1.102,0.4596 1.846,0.4463 0.77,-0.0133 1.255,-0.6927 1.726,-1.3854 0.538,-0.7859 0.757,-1.5518 0.771,-1.5918 -0.014,-0.0133 -1.488,-0.5794 -1.501,-2.2845 -0.014,-1.4253 1.162,-2.1046 1.215,-2.1446 -0.664,-0.9857 -1.7,-1.0923 -2.059,-1.1189 z m 5.333,-1.93152 V 20.176 h 1.607 v -3.5499 h 2.224 c 2.032,0 3.46,-1.3987 3.46,-3.4234 0,-2.0248 -1.401,-3.41012 -3.406,-3.41012 z m 1.607,1.35872 h 1.853 c 1.394,0 2.191,0.7459 2.191,2.058 0,1.3121 -0.797,2.0647 -2.198,2.0647 h -1.846 z m 8.619,9.1046 c 1.01,0 1.946,-0.5128 2.371,-1.3254 h 0.033 v 1.2455 h 1.488 v -5.1684 c 0,-1.4986 -1.196,-2.4643 -3.035,-2.4643 -1.707,0 -2.968,0.9791 -3.015,2.3244 h 1.448 c 0.119,-0.6393 0.71,-1.0589 1.521,-1.0589 0.982,0 1.533,0.4595 1.533,1.3054 v 0.5728 l -2.005,0.1199 c -1.866,0.1132 -2.875,0.8791 -2.875,2.2112 0,1.3454 1.042,2.2378 2.536,2.2378 z m 0.432,-1.2321 c -0.857,0 -1.401,-0.413 -1.401,-1.0457 0,-0.6527 0.524,-1.0323 1.527,-1.0923 l 1.786,-0.1132 v 0.5861 c 0,0.9724 -0.823,1.6651 -1.912,1.6651 z M 199.229,23 c 1.567,0 2.305,-0.5994 2.949,-2.4177 L 205,12.6432 h -1.634 l -1.892,6.1342 h -0.033 l -1.893,-6.1342 h -1.68 l 2.723,7.5595 -0.146,0.4595 c -0.246,0.7793 -0.645,1.079 -1.355,1.079 -0.126,0 -0.372,-0.0133 -0.472,-0.0266 V 22.96 c 0.093,0.0267 0.492,0.04 0.611,0.04 z"
       fill="#ffffff"
       id="path20" />
  </g>
  <rect
     x="109"
     width="50"
     height="32"
     rx="5"
     fill="#f8f4f1"
     id="rect24"
     y="0" />
  <g
     clip-path="url(#clip1_1167_4864)"
     id="g40"
     style="display:inline">
    <path
       d="m 133.703,16.2387 v 3.4173 h -1.088 v -8.4514 h 2.828 c 0.688,0 1.341,0.2572 1.848,0.7349 0.508,0.4409 0.762,1.1024 0.762,1.8005 0,0.6982 -0.254,1.3229 -0.762,1.8005 -0.507,0.4777 -1.123,0.735 -1.848,0.735 z m 0,-4.0052 v 2.9396 h 1.812 c 0.399,0 0.798,-0.147 1.051,-0.441 0.58,-0.5511 0.58,-1.4698 0.037,-2.0209 l -0.037,-0.0368 c -0.29,-0.294 -0.652,-0.4777 -1.051,-0.4409 z"
       fill="#5f6368"
       id="path26" />
    <path
       d="m 140.554,13.7036 c 0.797,0 1.414,0.2205 1.885,0.6614 0.471,0.441 0.689,1.0289 0.689,1.7638 v 3.5276 h -1.015 V 18.848 h -0.037 c -0.435,0.6614 -1.051,0.9921 -1.776,0.9921 -0.616,0 -1.16,-0.1837 -1.595,-0.5512 -0.399,-0.3674 -0.652,-0.8819 -0.652,-1.4331 0,-0.5879 0.217,-1.0656 0.652,-1.433 0.435,-0.3675 1.051,-0.5145 1.776,-0.5145 0.653,0 1.16,0.1103 1.559,0.3675 v -0.2572 c 0,-0.3675 -0.145,-0.7349 -0.435,-0.9554 -0.29,-0.2572 -0.652,-0.4042 -1.051,-0.4042 -0.616,0 -1.088,0.2572 -1.414,0.7716 l -0.942,-0.5879 c 0.58,-0.7716 1.341,-1.1391 2.356,-1.1391 z m -1.378,4.189 c 0,0.294 0.145,0.5512 0.363,0.6982 0.254,0.1837 0.544,0.2939 0.834,0.2939 0.435,0 0.87,-0.1837 1.196,-0.5144 0.362,-0.3307 0.544,-0.7349 0.544,-1.1759 -0.327,-0.2572 -0.798,-0.4042 -1.414,-0.4042 -0.435,0 -0.798,0.1103 -1.088,0.3307 -0.29,0.1838 -0.435,0.441 -0.435,0.7717 z"
       fill="#5f6368"
       id="path28" />
    <path
       d="m 149,13.8872 -3.589,8.3412 h -1.087 l 1.341,-2.9029 -2.356,-5.4015 h 1.16 l 1.703,4.1522 h 0.037 l 1.667,-4.1522 H 149 Z"
       fill="#5f6368"
       id="path30" />
    <path
       d="m 129.389,15.5038 c 0,-0.3307 -0.036,-0.6614 -0.073,-0.9921 h -4.531 v 1.874 h 2.574 c -0.109,0.588 -0.435,1.1391 -0.943,1.4699 v 1.2125 h 1.559 c 0.906,-0.8451 1.414,-2.0944 1.414,-3.5643 z"
       fill="#4285f4"
       id="path32" />
    <path
       d="m 124.785,20.2443 c 1.305,0 2.393,-0.441 3.19,-1.1759 l -1.558,-1.2126 c -0.435,0.294 -0.979,0.4777 -1.632,0.4777 -1.232,0 -2.32,-0.8451 -2.682,-2.021 h -1.595 v 1.2493 c 0.834,1.6536 2.465,2.6825 4.277,2.6825 z"
       fill="#34a853"
       id="path34" />
    <path
       d="m 122.103,16.3123 c -0.218,-0.5879 -0.218,-1.2493 0,-1.874 V 13.189 h -1.595 c -0.689,1.3595 -0.689,2.9763 0,4.3727 z"
       fill="#fbbc04"
       id="path36" />
    <path
       d="m 124.785,12.4542 c 0.689,0 1.341,0.2573 1.849,0.735 l 1.377,-1.3964 c -0.87,-0.8084 -2.03,-1.2861 -3.19,-1.2493 -1.812,0 -3.48,1.0289 -4.277,2.6824 l 1.595,1.2493 c 0.326,-1.1758 1.414,-2.021 2.646,-2.021 z"
       fill="#ea4335"
       id="path38" />
  </g>
  <rect
     x="54"
     width="51"
     height="32"
     rx="5"
     fill="#f8f4f1"
     id="rect42"
     y="0" />
  <path
     d="m 92,16 c 0,4.4021 -3.4668,8 -7.8003,8 -4.2922,0 -7.8003,-3.5979 -7.8003,-8 0,-4.4021 3.4668,-8 7.759,-8 C 88.5332,8 92,11.5979 92,16 Z"
     fill="#ffb600"
     id="path44" />
  <path
     d="M 84.1997,8 C 88.4919,8 92,11.5979 92,16 c 0,4.4021 -3.4668,8 -7.8003,8 -4.2922,0 -7.8003,-3.5979 -7.8003,-8"
     fill="#f7981d"
     id="path46" />
  <path
     d="m 84.1953,8 c 4.2922,0 7.8003,3.5979 7.8003,8 0,4.4021 -3.4668,8 -7.8003,8"
     fill="#ff8500"
     id="path48" />
  <path
     d="M 73.7177,8 C 69.4668,8.04233 66,11.5979 66,16 c 0,4.4021 3.4668,8 7.8003,8 2.0223,0 3.8382,-0.8042 5.2415,-2.0741 0.2889,-0.2539 0.5365,-0.5502 0.7841,-0.8465 H 78.2163 C 78.01,20.8254 77.8036,20.5291 77.6385,20.2751 h 2.7652 c 0.1651,-0.2539 0.3302,-0.5502 0.454,-0.8465 h -3.6732 c -0.1238,-0.254 -0.2476,-0.5503 -0.3301,-0.8466 h 4.2922 c 0.2476,-0.8042 0.4127,-1.6508 0.4127,-2.5397 0,-0.5926 -0.0825,-1.1428 -0.1651,-1.6931 h -4.7875 c 0.0413,-0.2963 0.1239,-0.5503 0.2064,-0.8466 h 4.2922 C 81.0228,13.2063 80.899,12.9101 80.7751,12.6561 h -3.6318 c 0.1238,-0.2963 0.2889,-0.5503 0.454,-0.8466 h 2.7651 C 80.1973,11.5132 79.991,11.2169 79.7434,10.963 H 78.2163 C 78.464,10.6667 78.7116,10.4127 79.0005,10.1587 77.6385,8.84656 75.7813,8.08466 73.759,8.08466 73.759,8 73.759,8 73.7177,8 Z"
     fill="#ff5050"
     id="path50" />
  <path
     d="m 66,16.0003 c 0,4.4021 3.4668,8 7.8003,8 2.0223,0 3.8382,-0.8042 5.2415,-2.0741 0.2889,-0.2539 0.5365,-0.5502 0.7841,-0.8465 H 78.2163 C 78.01,20.8257 77.8036,20.5294 77.6385,20.2754 h 2.7652 c 0.1651,-0.2539 0.3302,-0.5502 0.454,-0.8465 h -3.6732 c -0.1238,-0.254 -0.2476,-0.5503 -0.3301,-0.8466 h 4.2922 c 0.2476,-0.8042 0.4127,-1.6508 0.4127,-2.5397 0,-0.5926 -0.0825,-1.1428 -0.1651,-1.6931 h -4.7875 c 0.0413,-0.2963 0.1239,-0.5503 0.2064,-0.8465 h 4.2922 C 81.0228,13.2067 80.899,12.9104 80.7751,12.6564 h -3.6318 c 0.1238,-0.2963 0.2889,-0.5503 0.454,-0.8466 h 2.7651 C 80.1973,11.5135 79.991,11.2172 79.7434,10.9633 H 78.2163 C 78.464,10.667 78.7116,10.413 79.0005,10.159 77.6385,8.84687 75.7813,8.08496 73.759,8.08496 h -0.0413"
     fill="#e52836"
     id="path52" />
  <path
     d="m 73.7993,24.0003 c 2.0223,0 3.8383,-0.8042 5.2415,-2.0741 0.2889,-0.2539 0.5365,-0.5502 0.7842,-0.8465 h -1.6096 c -0.2064,-0.254 -0.4127,-0.5503 -0.5778,-0.8043 h 2.7652 c 0.165,-0.2539 0.3301,-0.5502 0.4539,-0.8465 h -3.6731 c -0.1238,-0.254 -0.2476,-0.5503 -0.3302,-0.8466 h 4.2922 c 0.2477,-0.8042 0.4128,-1.6508 0.4128,-2.5397 0,-0.5926 -0.0826,-1.1428 -0.1651,-1.6931 h -4.7875 c 0.0413,-0.2963 0.1238,-0.5503 0.2063,-0.8465 h 4.2923 C 81.0218,13.2067 80.898,12.9104 80.7742,12.6564 h -3.6319 c 0.1238,-0.2963 0.2889,-0.5503 0.454,-0.8466 h 2.7652 C 80.1964,11.5135 79.99,11.2172 79.7424,10.9633 h -1.527 C 78.463,10.667 78.7106,10.413 78.9995,10.159 77.6376,8.84687 75.7804,8.08496 73.7581,8.08496 h -0.0413"
     fill="#cb2026"
     id="path54" />
  <path
     d="m 76.5602,18.032 0.1238,-0.7196 c -0.0413,0 -0.1238,0.0423 -0.2064,0.0423 -0.2889,0 -0.3302,-0.1693 -0.2889,-0.2539 l 0.2476,-1.4815 h 0.454 l 0.1238,-0.8042 h -0.4127 l 0.0826,-0.508 h -0.8255 c 0,0 -0.4952,2.7937 -0.4952,3.1323 0,0.5079 0.2889,0.7196 0.6603,0.7196 0.2477,0 0.454,-0.0847 0.5366,-0.127 z"
     fill="#ffffff"
     id="path56" />
  <path
     d="m 76.8496,16.6777 c 0,1.1852 0.7842,1.4815 1.4445,1.4815 0.6191,0 0.8667,-0.127 0.8667,-0.127 l 0.1651,-0.8042 c 0,0 -0.454,0.2116 -0.8667,0.2116 -0.908,0 -0.7429,-0.6772 -0.7429,-0.6772 h 1.6921 c 0,0 0.1238,-0.5503 0.1238,-0.762 0,-0.5502 -0.2889,-1.2275 -1.1968,-1.2275 -0.8667,-0.0846 -1.4858,0.8466 -1.4858,1.9048 z m 1.4445,-1.2275 c 0.454,0 0.3714,0.5502 0.3714,0.5926 h -0.9079 c 0,-0.0424 0.0825,-0.5926 0.5365,-0.5926 z"
     fill="#ffffff"
     id="path58" />
  <path
     d="m 83.5375,18.0316 0.1651,-0.9312 c 0,0 -0.4127,0.2116 -0.7016,0.2116 -0.5778,0 -0.8255,-0.4656 -0.8255,-0.9735 0,-1.0159 0.4953,-1.5662 1.0731,-1.5662 0.4127,0 0.7429,0.254 0.7429,0.254 l 0.1238,-0.8889 c 0,0 -0.4953,-0.2116 -0.9492,-0.2116 -0.9493,0 -1.8985,0.8465 -1.8985,2.455 0,1.0582 0.4952,1.7778 1.4857,1.7778 0.3302,0 0.7842,-0.127 0.7842,-0.127 z"
     fill="#ffffff"
     id="path60" />
  <path
     d="m 72.0292,14.6875 c -0.5777,0 -0.9905,0.1693 -0.9905,0.1693 l -0.1238,0.7196 c 0,0 0.3715,-0.1693 0.908,-0.1693 0.2889,0 0.5365,0.0423 0.5365,0.2963 0,0.1693 -0.0413,0.2116 -0.0413,0.2116 0,0 -0.2476,0 -0.3714,0 -0.7016,0 -1.4858,0.2963 -1.4858,1.2699 0,0.7619 0.4953,0.9312 0.7842,0.9312 0.5778,0 0.8254,-0.381 0.8667,-0.381 l -0.0413,0.3386 h 0.7429 l 0.3302,-2.328 c 0,-1.0159 -0.8255,-1.0582 -1.1144,-1.0582 z m 0.1651,1.9048 c 0,0.1269 -0.0825,0.8042 -0.5778,0.8042 -0.2476,0 -0.3301,-0.2116 -0.3301,-0.3386 0,-0.2117 0.1238,-0.508 0.7428,-0.508 0.1239,0.0424 0.1651,0.0424 0.1651,0.0424 z"
     fill="#ffffff"
     id="path62" />
  <path
     d="m 73.9239,18.1164 c 0.2063,0 1.2381,0.0423 1.2381,-1.1005 0,-1.0582 -0.9905,-0.8466 -0.9905,-1.2699 0,-0.2116 0.1651,-0.2963 0.454,-0.2963 0.1238,0 0.5778,0.0424 0.5778,0.0424 l 0.1238,-0.7619 c 0,0 -0.2889,-0.0847 -0.7842,-0.0847 -0.619,0 -1.2381,0.254 -1.2381,1.1005 0,0.9736 1.0318,0.8889 1.0318,1.2699 0,0.2539 -0.2889,0.2963 -0.4953,0.2963 -0.3714,0 -0.7429,-0.127 -0.7429,-0.127 l -0.1238,0.7619 c 0.0413,0.0847 0.2476,0.1693 0.9493,0.1693 z"
     fill="#ffffff"
     id="path64" />
  <path
     d="m 90.3935,14.0107 -0.1651,1.1429 c 0,0 -0.3302,-0.4233 -0.7842,-0.4233 -0.7428,0 -1.4032,0.9312 -1.4032,2.0318 0,0.6772 0.3302,1.3968 1.0318,1.3968 0.4953,0 0.7842,-0.3386 0.7842,-0.3386 l -0.0413,0.2963 h 0.8254 l 0.6191,-4.0635 z m -0.3715,2.2434 c 0,0.4656 -0.2063,1.0582 -0.6603,1.0582 -0.2889,0 -0.454,-0.2539 -0.454,-0.6772 0,-0.6773 0.2889,-1.1005 0.6604,-1.1005 0.2889,0 0.4539,0.2116 0.4539,0.7195 z"
     fill="#ffffff"
     id="path66" />
  <path
     d="m 67.5244,18.0742 0.4952,-3.0476 0.0826,3.0476 H 68.68 l 1.073,-3.0476 -0.4539,3.0476 h 0.8667 l 0.6603,-4.0635 h -1.362 l -0.8254,2.4974 -0.0413,-2.4974 h -1.1968 l -0.6604,4.0635 z"
     fill="#ffffff"
     id="path68" />
  <path
     d="m 80.3201,18.0745 c 0.2476,-1.3968 0.2889,-2.5396 0.8667,-2.328 0.0825,-0.5503 0.2063,-0.7619 0.2889,-0.9736 0,0 -0.0413,0 -0.1651,0 -0.3715,0 -0.6603,0.508 -0.6603,0.508 l 0.0825,-0.4656 h -0.7842 l -0.5365,3.3016 h 0.908 z"
     fill="#ffffff"
     id="path70" />
  <path
     d="m 85.4355,14.6875 c -0.5778,0 -0.9905,0.1693 -0.9905,0.1693 l -0.1238,0.7196 c 0,0 0.3714,-0.1693 0.9079,-0.1693 0.2889,0 0.5366,0.0423 0.5366,0.2963 0,0.1693 -0.0413,0.2116 -0.0413,0.2116 0,0 -0.2476,0 -0.3714,0 -0.7017,0 -1.4858,0.2963 -1.4858,1.2699 0,0.7619 0.4952,0.9312 0.7841,0.9312 0.5778,0 0.8255,-0.381 0.8667,-0.381 l -0.0412,0.3386 h 0.7429 l 0.3301,-2.328 c 0.0413,-1.0159 -0.8254,-1.0582 -1.1143,-1.0582 z m 0.2064,1.9048 c 0,0.1269 -0.0826,0.8042 -0.5778,0.8042 -0.2477,0 -0.3302,-0.2116 -0.3302,-0.3386 0,-0.2117 0.1238,-0.508 0.7429,-0.508 0.1238,0.0424 0.1238,0.0424 0.1651,0.0424 z"
     fill="#ffffff"
     id="path72" />
  <path
     d="m 87.2546,18.0745 c 0.2477,-1.3968 0.2889,-2.5396 0.8667,-2.328 0.0826,-0.5503 0.2064,-0.7619 0.2889,-0.9736 0,0 -0.0412,0 -0.165,0 -0.3715,0 -0.6604,0.508 -0.6604,0.508 l 0.0826,-0.4656 h -0.7842 l -0.5365,3.3016 h 0.9079 z"
     fill="#ffffff"
     id="path74" />
  <path
     d="m 75.2803,17.4394 c 0,0.5079 0.2889,0.7196 0.6603,0.7196 0.2889,0 0.5365,-0.0847 0.619,-0.127 l 0.1238,-0.7196 c -0.0412,0 -0.1238,0.0423 -0.2063,0.0423 -0.2889,0 -0.3302,-0.1693 -0.2889,-0.2539 l 0.2476,-1.4815 h 0.454 l 0.1238,-0.8042 h -0.4127 l 0.0825,-0.508"
     fill="#dce5e5"
     id="path76" />
  <path
     d="m 77.2676,16.6777 c 0,1.1852 0.3714,1.4815 1.0318,1.4815 0.619,0 0.8667,-0.127 0.8667,-0.127 l 0.165,-0.8042 c 0,0 -0.4539,0.2116 -0.8667,0.2116 -0.9079,0 -0.7428,-0.6772 -0.7428,-0.6772 h 1.6921 c 0,0 0.1238,-0.5503 0.1238,-0.762 0,-0.5502 -0.2889,-1.2275 -1.1969,-1.2275 -0.8667,-0.0846 -1.073,0.8466 -1.073,1.9048 z m 1.0318,-1.2275 c 0.4539,0 0.5365,0.5502 0.5365,0.5926 h -1.0731 c 0,-0.0424 0.0826,-0.5926 0.5366,-0.5926 z"
     fill="#dce5e5"
     id="path78" />
  <path
     d="m 83.5379,18.0316 0.1651,-0.9312 c 0,0 -0.4128,0.2116 -0.7017,0.2116 -0.5778,0 -0.8254,-0.4656 -0.8254,-0.9735 0,-1.0159 0.4953,-1.5662 1.0731,-1.5662 0.4127,0 0.7429,0.254 0.7429,0.254 l 0.1238,-0.8889 c 0,0 -0.4953,-0.2116 -0.9493,-0.2116 -0.9492,0 -1.4857,0.8465 -1.4857,2.455 0,1.0582 0.0825,1.7778 1.073,1.7778 0.3302,0 0.7842,-0.127 0.7842,-0.127 z"
     fill="#dce5e5"
     id="path80" />
  <path
     d="m 70.9149,15.6195 c 0,0 0.3715,-0.1693 0.908,-0.1693 0.2889,0 0.5365,0.0423 0.5365,0.2963 0,0.1693 -0.0413,0.2116 -0.0413,0.2116 0,0 -0.2476,0 -0.3714,0 -0.7016,0 -1.4858,0.2963 -1.4858,1.2699 0,0.7619 0.4953,0.9312 0.7842,0.9312 0.5778,0 0.8254,-0.381 0.8667,-0.381 l -0.0413,0.3387 h 0.7429 l 0.3302,-2.3281 c 0,-0.9735 -0.8255,-1.0159 -1.1556,-1.0159 z m 1.6921,0.9736 c 0,0.1269 -0.4952,0.8042 -0.9905,0.8042 -0.2476,0 -0.3301,-0.2117 -0.3301,-0.3386 0,-0.2117 0.1238,-0.508 0.7428,-0.508 0.1239,0.0424 0.5778,0.0424 0.5778,0.0424 z"
     fill="#dce5e5"
     id="path82" />
  <path
     d="m 73.0176,18.0318 c 0,0 0.2476,0.0846 0.9492,0.0846 0.2064,0 1.2382,0.0423 1.2382,-1.1005 0,-1.0582 -0.9906,-0.8466 -0.9906,-1.2699 0,-0.2116 0.1651,-0.2963 0.454,-0.2963 0.1238,0 0.5778,0.0424 0.5778,0.0424 L 75.37,14.7302 c 0,0 -0.2889,-0.0847 -0.7841,-0.0847 -0.6191,0 -0.8254,0.254 -0.8254,1.1005 0,0.9736 0.619,0.8889 0.619,1.2699 0,0.2539 -0.2889,0.2963 -0.4952,0.2963"
     fill="#dce5e5"
     id="path84" />
  <path
     d="m 90.2249,15.1538 c 0,0 -0.3301,-0.4233 -0.7841,-0.4233 -0.7429,0 -0.9905,0.9312 -0.9905,2.0317 0,0.6773 -0.0826,1.3968 0.619,1.3968 0.4953,0 0.7842,-0.3386 0.7842,-0.3386 l -0.0413,0.2963 h 0.8254 l 0.6191,-4.0635 z m -0.0412,1.1005 c 0,0.4656 -0.3715,1.0582 -0.8255,1.0582 -0.2889,0 -0.454,-0.254 -0.454,-0.6773 0,-0.6772 0.2889,-1.1005 0.6604,-1.1005 0.2889,0 0.6191,0.2116 0.6191,0.7196 z"
     fill="#dce5e5"
     id="path86" />
  <path
     d="m 67.5244,18.0742 0.4952,-3.0476 0.0826,3.0476 H 68.68 l 1.073,-3.0476 -0.4539,3.0476 h 0.8667 l 0.6603,-4.0635 h -1.0318 l -1.1556,2.4974 -0.0413,-2.4974 h -0.4539 l -1.4033,4.0635 z"
     fill="#dce5e5"
     id="path88" />
  <path
     d="m 79.4531,18.0745 h 0.8667 c 0.2477,-1.3968 0.2889,-2.5396 0.8667,-2.328 0.0826,-0.5503 0.2064,-0.7619 0.2889,-0.9736 0,0 -0.0412,0 -0.1651,0 -0.3714,0 -0.6603,0.508 -0.6603,0.508 l 0.0825,-0.4656"
     fill="#dce5e5"
     id="path90" />
  <path
     d="m 84.3212,15.6195 c 0,0 0.3714,-0.1693 0.9079,-0.1693 0.2889,0 0.5366,0.0423 0.5366,0.2963 0,0.1693 -0.0413,0.2116 -0.0413,0.2116 0,0 -0.2476,0 -0.3714,0 -0.7017,0 -1.4858,0.2963 -1.4858,1.2699 0,0.7619 0.4952,0.9312 0.7841,0.9312 0.5778,0 0.8255,-0.381 0.8667,-0.381 l -0.0412,0.3387 h 0.7429 l 0.3301,-2.3281 c 0,-0.9735 -0.8254,-1.0159 -1.1556,-1.0159 z m 1.6921,0.9736 c 0,0.1269 -0.4953,0.8042 -0.9905,0.8042 -0.2476,0 -0.3302,-0.2117 -0.3302,-0.3386 0,-0.2117 0.1238,-0.508 0.7429,-0.508 0.1651,0.0424 0.5778,0.0424 0.5778,0.0424 z"
     fill="#dce5e5"
     id="path92" />
  <path
     d="m 86.3809,18.0745 h 0.8667 c 0.2476,-1.3968 0.2889,-2.5396 0.8667,-2.328 0.0825,-0.5503 0.2063,-0.7619 0.2889,-0.9736 0,0 -0.0413,0 -0.1651,0 -0.3715,0 -0.6604,0.508 -0.6604,0.508 l 0.0826,-0.4656"
     fill="#dce5e5"
     id="path94" />
  <rect
     width="50"
     height="32"
     rx="5"
     fill="#f8f4f1"
     id="rect96"
     x="0"
     y="0" />
  <path
     d="m 19.8232,21.7378 1.6377,-9.4238 h 2.5587 l -1.5864,9.4238 z"
     fill="#3c58bf"
     id="path98" />
  <path
     d="m 19.8232,21.7378 2.0982,-9.4238 h 2.0982 l -1.5864,9.4238 z"
     fill="#293688"
     id="path100" />
  <path
     d="M 31.6912,12.4188 C 31.1794,12.2094 30.3606,12 29.3371,12 c -2.5588,0 -4.4011,1.3089 -4.4011,3.1936 0,1.4136 1.2794,2.1466 2.3029,2.6178 1.0235,0.4711 1.3306,0.7853 1.3306,1.2041 0,0.6283 -0.8188,0.9424 -1.5353,0.9424 -1.0235,0 -1.5864,-0.1571 -2.4564,-0.5236 l -0.3582,-0.157 -0.3583,2.1465 c 0.6141,0.2618 1.74,0.5236 2.917,0.5236 2.7123,0 4.5035,-1.3089 4.5035,-3.2984 0,-1.0994 -0.6653,-1.9371 -2.2006,-2.6177 -0.9211,-0.4712 -1.4841,-0.733 -1.4841,-1.2042 0,-0.4188 0.4606,-0.8376 1.4841,-0.8376 0.87,0 1.4841,0.157 1.9447,0.3665 l 0.2559,0.1047 z"
     fill="#3c58bf"
     id="path102" />
  <path
     d="M 31.6912,12.4188 C 31.1794,12.2094 30.3606,12 29.3371,12 c -2.5588,0 -3.9405,1.3089 -3.9405,3.1936 0,1.4136 0.8188,2.1466 1.8423,2.6178 1.0235,0.4711 1.3306,0.7853 1.3306,1.2041 0,0.6283 -0.8188,0.9424 -1.5353,0.9424 -1.0235,0 -1.5864,-0.1571 -2.4564,-0.5236 l -0.3582,-0.157 -0.3583,2.1465 c 0.6141,0.2618 1.74,0.5236 2.917,0.5236 2.7123,0 4.5035,-1.3089 4.5035,-3.2984 0,-1.0994 -0.6653,-1.9371 -2.2006,-2.6177 -0.9211,-0.4712 -1.4841,-0.733 -1.4841,-1.2042 0,-0.4188 0.4606,-0.8376 1.4841,-0.8376 0.87,0 1.4841,0.157 1.9447,0.3665 l 0.2559,0.1047 z"
     fill="#293688"
     id="path104" />
  <path
     d="m 36.0886,12.314 c -0.6141,0 -1.0746,0.0523 -1.3305,0.6806 l -3.8382,8.7432 h 2.7635 l 0.5118,-1.5707 h 3.2752 l 0.307,1.5707 h 2.4565 L 38.0845,12.314 Z m -1.177,6.2825 c 0.1535,-0.4712 1.0235,-2.7748 1.0235,-2.7748 0,0 0.2047,-0.5759 0.3583,-0.9424 l 0.1535,0.8901 c 0,0 0.5117,2.3559 0.6141,2.8795 h -2.1494 z"
     fill="#3c58bf"
     id="path106" />
  <path
     d="m 36.7028,12.314 c -0.6142,0 -1.0747,0.0523 -1.3306,0.6806 l -4.4523,8.7432 h 2.7635 l 0.5118,-1.5707 h 3.2752 l 0.307,1.5707 h 2.4565 L 38.0845,12.314 Z m -1.7912,6.2825 c 0.2047,-0.5235 1.0235,-2.7748 1.0235,-2.7748 0,0 0.2047,-0.5759 0.3583,-0.9424 l 0.1535,0.8901 c 0,0 0.5117,2.3559 0.6141,2.8795 h -2.1494 z"
     fill="#293688"
     id="path108" />
  <path
     d="m 15.1106,18.911 -0.2559,-1.3612 c -0.4605,-1.5706 -1.9446,-3.2983 -3.5822,-4.136 l 2.3029,8.3767 h 2.7634 l 4.1453,-9.4238 h -2.7635 z"
     fill="#3c58bf"
     id="path110" />
  <path
     d="m 15.1106,18.911 -0.2559,-1.3612 c -0.4605,-1.5706 -1.9446,-3.2983 -3.5822,-4.136 l 2.3029,8.3767 h 2.7634 l 4.1453,-9.4238 h -2.2518 z"
     fill="#293688"
     id="path112" />
  <path
     d="m 8,12.314 0.46058,0.1047 c 3.27522,0.7853 5.52692,2.7748 6.39692,5.1307 L 13.9364,13.0993 C 13.7828,12.471 13.3223,12.314 12.7593,12.314 Z"
     fill="#ffbc00"
     id="path114" />
  <path
     d="m 8,12.314 c 3.2752,0.7853 5.9875,2.8271 6.8575,5.1831 l -0.87,-3.7172 C 13.834,13.1516 13.3223,12.7852 12.7593,12.7852 Z"
     fill="#f7981d"
     id="path116" />
  <path
     d="m 8,12.314 c 3.2752,0.7853 5.9875,2.8271 6.8575,5.1831 L 14.2434,15.4552 C 14.0899,14.827 13.8852,14.1987 13.1687,13.937 Z"
     fill="#ed7c00"
     id="path118" />
  <path
     d="m 17.6749,18.5963 -1.74,-1.7801 -0.8188,1.9895 -0.2047,-1.3089 c -0.4606,-1.5706 -1.9447,-3.2983 -3.5823,-4.136 l 2.3029,8.3768 h 2.7635 z"
     fill="#051244"
     id="path120" />
  <path
     d="m 22.4332,21.7382 -2.2006,-2.3036 -0.4094,2.3036 z"
     fill="#051244"
     id="path122" />
  <path
     d="m 28.3136,18.4922 c 0.2047,0.2094 0.3071,0.3665 0.2559,0.5759 0,0.6282 -0.8188,0.9424 -1.5353,0.9424 -1.0235,0 -1.5864,-0.1571 -2.4564,-0.5236 l -0.3582,-0.157 -0.3583,2.1465 c 0.6141,0.2618 1.74,0.5235 2.917,0.5235 1.6376,0 2.9682,-0.4711 3.7358,-1.3088 z"
     fill="#051244"
     id="path124" />
  <path
     d="m 31.2822,21.7378 h 2.4053 l 0.5117,-1.5706 h 3.2753 l 0.307,1.5706 h 2.4564 L 39.368,17.916 36.2974,14.8794 36.451,15.7171 c 0,0 0.5117,2.3559 0.6141,2.8795 h -2.1494 c 0.2047,-0.5236 1.0235,-2.7748 1.0235,-2.7748 0,0 0.2047,-0.5759 0.3582,-0.9424"
     fill="#051244"
     id="path126" />
  <defs
     id="defs134">
    <clipPath
       id="clip0_1167_4864">
      <rect
         width="34"
         height="14"
         fill="#ffffff"
         transform="translate(171,9)"
         id="rect128"
         x="0"
         y="0" />
    </clipPath>
    <clipPath
       id="clip1_1167_4864">
      <rect
         width="29"
         height="14"
         fill="#ffffff"
         transform="translate(120,9)"
         id="rect131"
         x="0"
         y="0" />
    </clipPath>
  </defs>
  <g
     id="g702"
     style="display:inline"
     transform="matrix(0.94710928,0,0,0.94710928,37.589695,-20.138698)">
    <path
       id="Base_1_"
       fill="#ffffff"
       d="m 111.72442,28.10837 h -18.2913 c -5.716029,0 -10.392783,4.676754 -10.392783,10.392786 v 0 c 0,5.716028 4.676754,10.392782 10.392783,10.392782 h 18.2913 c 5.71603,0 10.39278,-4.676754 10.39278,-10.392782 v 0 c 0,-5.716032 -4.67675,-10.392786 -10.39278,-10.392786 z"
       style="stroke-width:0.0519641" />
    <path
       id="Outline"
       fill="#3c4043"
       d="m 111.72442,28.950186 c 1.28351,0 2.53064,0.254621 3.70503,0.753478 1.13801,0.483265 2.1565,1.174385 3.03989,2.052573 0.87819,0.878192 1.56931,1.90188 2.05257,3.039889 0.49886,1.174384 0.75348,2.421521 0.75348,3.70503 0,1.283505 -0.25462,2.530642 -0.75348,3.705026 -0.48326,1.138009 -1.17438,2.156503 -2.05257,3.039889 -0.87819,0.878188 -1.90188,1.569312 -3.03989,2.052573 -1.17439,0.498857 -2.42152,0.753478 -3.70503,0.753478 h -18.2913 c -1.283505,0 -2.530642,-0.254621 -3.705026,-0.753478 -1.13801,-0.483261 -2.156504,-1.174385 -3.03989,-2.052573 -0.878188,-0.878191 -1.569312,-1.90188 -2.052573,-3.039889 -0.498857,-1.174384 -0.753478,-2.421521 -0.753478,-3.705026 0,-1.283509 0.254621,-2.530646 0.753478,-3.70503 0.483261,-1.138009 1.174385,-2.156502 2.052573,-3.039889 0.878191,-0.878188 1.90188,-1.569308 3.03989,-2.052573 1.174384,-0.498857 2.421521,-0.753478 3.705026,-0.753478 h 18.2913 m 0,-0.841816 h -18.2913 c -5.716029,0 -10.392783,4.676754 -10.392783,10.392786 v 0 c 0,5.716028 4.676754,10.392782 10.392783,10.392782 h 18.2913 c 5.71603,0 10.39278,-4.676754 10.39278,-10.392782 v 0 c 0,-5.716032 -4.67675,-10.392786 -10.39278,-10.392786 z"
       style="stroke-width:0.0519641" />
    <g
       id="G_Pay_Lockup_1_"
       transform="matrix(0.05196392,0,0,0.05196392,74.170097,19.274503)">
	<g
   id="Pay_Typeface_3_">
		<path
   id="Letter_p_3_"
   fill="#3c4043"
   d="m 529.3,384.2 v 60.5 H 510.1 V 295.3 H 561 c 12.9,0 23.9,4.3 32.9,12.9 9.2,8.6 13.8,19.1 13.8,31.5 0,12.7 -4.6,23.2 -13.8,31.7 -8.9,8.5 -19.9,12.7 -32.9,12.7 h -31.7 z m 0,-70.5 v 52.1 h 32.1 c 7.6,0 14,-2.6 19,-7.7 5.1,-5.1 7.7,-11.3 7.7,-18.3 0,-6.9 -2.6,-13 -7.7,-18.1 -5,-5.3 -11.3,-7.9 -19,-7.9 h -32.1 z" />

		<path
   id="Letter_a_3_"
   fill="#3c4043"
   d="m 657.9,339.1 c 14.2,0 25.4,3.8 33.6,11.4 8.2,7.6 12.3,18 12.3,31.2 v 63 h -18.3 v -14.2 h -0.8 c -7.9,11.7 -18.5,17.5 -31.7,17.5 -11.3,0 -20.7,-3.3 -28.3,-10 -7.6,-6.7 -11.4,-15 -11.4,-25 0,-10.6 4,-19 12,-25.2 8,-6.3 18.7,-9.4 32,-9.4 11.4,0 20.8,2.1 28.1,6.3 v -4.4 c 0,-6.7 -2.6,-12.3 -7.9,-17 -5.3,-4.7 -11.5,-7 -18.6,-7 -10.7,0 -19.2,4.5 -25.4,13.6 l -16.9,-10.6 c 9.3,-13.5 23.1,-20.2 41.3,-20.2 z m -24.8,74.2 c 0,5 2.1,9.2 6.4,12.5 4.2,3.3 9.2,5 14.9,5 8.1,0 15.3,-3 21.6,-9 6.3,-6 9.5,-13 9.5,-21.1 -6,-4.7 -14.3,-7.1 -25,-7.1 -7.8,0 -14.3,1.9 -19.5,5.6 -5.3,3.9 -7.9,8.6 -7.9,14.1 z" />

		<path
   id="Letter_y_3_"
   fill="#3c4043"
   d="m 808.2,342.4 -64,147.2 H 724.4 L 748.2,438.1 706,342.4 h 20.9 l 30.4,73.4 h 0.4 l 29.6,-73.4 z" />

	</g>

	<g
   id="G_Mark_1_">
		<path
   id="Blue_500"
   fill="#4285f4"
   d="m 452.93,372 c 0,-6.26 -0.56,-12.25 -1.6,-18.01 h -80.48 v 33 L 417.2,387 c -1.88,10.98 -7.93,20.34 -17.2,26.58 v 21.41 h 27.59 C 443.7,420.08 452.93,398.04 452.93,372 Z" />

		<path
   id="Green_500_1_"
   fill="#34a853"
   d="m 400.01,413.58 c -7.68,5.18 -17.57,8.21 -29.14,8.21 -22.35,0 -41.31,-15.06 -48.1,-35.36 h -28.46 v 22.08 c 14.1,27.98 43.08,47.18 76.56,47.18 23.14,0 42.58,-7.61 56.73,-20.71 z" />

		<path
   id="Yellow_500_1_"
   fill="#fabb05"
   d="m 320.09,370.05 c 0,-5.7 0.95,-11.21 2.68,-16.39 v -22.08 h -28.46 c -5.83,11.57 -9.11,24.63 -9.11,38.47 0,13.84 3.29,26.9 9.11,38.47 l 28.46,-22.08 c -1.73,-5.18 -2.68,-10.69 -2.68,-16.39 z" />

		<path
   id="Red_500"
   fill="#e94235"
   d="m 370.87,318.3 c 12.63,0 23.94,4.35 32.87,12.85 l 24.45,-24.43 c -14.85,-13.83 -34.21,-22.32 -57.32,-22.32 -33.47,0 -62.46,19.2 -76.56,47.18 l 28.46,22.08 c 6.79,-20.3 25.75,-35.36 48.1,-35.36 z" />

	</g>

</g>
  </g>
</svg>
